HIERARCHY
ROOT Hips
{
	OFFSET 0.000000 0.000000 0.000000
	CHANNELS 6 Xposition Yposition Zposition Zrotation Yrotation Xrotation 
	JOINT LowerBack
	{
		OFFSET 0.000000 0.000000 0.000000
		CHANNELS 3 Zrotation Yrotation Xrotation
		JOINT Spine
		{
			OFFSET 0.028270 2.035590 -0.193380
			CHANNELS 3 Zrotation Yrotation Xrotation
			JOINT Spine1
			{
				OFFSET 0.056720 2.048850 -0.042750
				CHANNELS 3 Zrotation Yrotation Xrotation
				JOINT Neck
				{
					OFFSET 0.000000 0.000000 0.000000
					CHANNELS 3 Zrotation Yrotation Xrotation
					JOINT Neck1
					{
						OFFSET -0.054170 1.746240 0.172020
						CHANNELS 3 Zrotation Yrotation Xrotation
						JOINT Head
						{
							OFFSET 0.104070 1.761360 -0.123970
							CHANNELS 3 Zrotation Yrotation Xrotation
							End Site
							{
								OFFSET 0.000000 0.000000 0.000000
							}
						}
					}
				}
				JOINT LeftShoulder
				{
					OFFSET 0.000000 0.000000 0.000000
					CHANNELS 3 Zrotation Yrotation Xrotation
					JOINT LeftArm
					{
						OFFSET 3.362410 1.200890 -0.311210
						CHANNELS 3 Zrotation Yrotation Xrotation
						JOINT LeftForeArm
						{
							OFFSET 4.983000 -0.000000 -0.000000
							CHANNELS 3 Zrotation Yrotation Xrotation
							JOINT LeftHand
							{
								OFFSET 3.483560 -0.000000 -0.000000
								CHANNELS 3 Zrotation Yrotation Xrotation
								JOINT LeftFingerBase
								{
									OFFSET 0.000000 0.000000 0.000000
									CHANNELS 3 Zrotation Yrotation Xrotation
									JOINT LeftHandIndex1
									{
										OFFSET 0.715260 -0.000000 -0.000000
										CHANNELS 3 Zrotation Yrotation Xrotation
										End Site
										{
											OFFSET 0.000000 0.000000 0.000000
										}
									}
								}
								JOINT LThumb
								{
									OFFSET 0.000000 0.000000 0.000000
									CHANNELS 3 Zrotation Yrotation Xrotation
									End Site
									{
										OFFSET 0.000000 0.000000 0.000000
									}
								}
							}
						}
					}
				}
				JOINT RightShoulder
				{
					OFFSET 0.000000 0.000000 0.000000
					CHANNELS 3 Zrotation Yrotation Xrotation
					JOINT RightArm
					{
						OFFSET -3.136600 1.374050 -0.404650
						CHANNELS 3 Zrotation Yrotation Xrotation
						JOINT RightForeArm
						{
							OFFSET -5.241900 -0.000000 -0.000000
							CHANNELS 3 Zrotation Yrotation Xrotation
							JOINT RightHand
							{
								OFFSET -3.444170 -0.000000 -0.000000
								CHANNELS 3 Zrotation Yrotation Xrotation
								JOINT RightFingerBase
								{
									OFFSET 0.000000 0.000000 0.000000
									CHANNELS 3 Zrotation Yrotation Xrotation
									JOINT RightHandIndex1
									{
										OFFSET -0.622530 -0.000000 -0.000000
										CHANNELS 3 Zrotation Yrotation Xrotation
										End Site
										{
											OFFSET 0.000000 0.000000 0.000000
										}
									}
								}
								JOINT RThumb
								{
									OFFSET 0.000000 0.000000 0.000000
									CHANNELS 3 Zrotation Yrotation Xrotation
									End Site
									{
										OFFSET 0.000000 0.000000 0.000000
									}
								}
							}
						}
					}
				}
			}
		}
	}
}
}
MOTION
Frames: 17
Frame Time: 0.008333
1.141722 16.834109 -0.560844 -136.964403 89.539969 -125.243696 4.053382 -3.730255 -4.509765 0.051245 -4.261679 -3.681555 -7.454983 -4.307072 0.738385 9.721780 -9.139164 -6.616259 -4.446514 -0.350968 0.292378 0.000000 0.000000 0.000000 -7.175760 1.338964 1.590722 -61.836556 -18.554518 17.497658 -3.017909 -36.528831 -0.012132 4.861264 0.806041 0.029565 -0.114508 0.151587 0.000000 0.000000 0.000000 0.000000 0.000000 0.000000 0.000000 19.744568 -9.007998 0.985131 64.827579 -9.018335 -15.185928 4.304867 9.302583 0.008299 -0.831983 4.001913 -0.033341 0.120412 -0.029157 -0.000000 0.000000 0.000000 0.000000 0.000000 0.000000 0.000000 
1.313296 16.862756 -0.540361 -124.619998 89.235403 -112.860344 4.459118 -3.685871 -4.628634 0.140267 -4.259664 -3.715440 -7.425795 -4.308809 0.741742 9.649908 -8.975013 -6.597276 -4.455086 -0.352248 0.299099 0.000000 0.000000 0.000000 -7.300407 1.489462 1.564206 -62.547277 -17.805338 17.380587 -3.023480 -35.332612 -0.011852 4.908377 0.856154 0.032301 -0.110499 0.144896 0.000000 0.000000 0.000000 0.000000 0.000000 0.000000 0.000000 19.667155 -8.835201 0.956921 64.925864 -8.595575 -15.020688 4.309631 9.222908 0.008319 -0.893661 4.020085 -0.035636 0.120536 -0.029491 -0.000000 0.000000 0.000000 0.000000 0.000000 0.000000 0.000000 
1.480800 16.892215 -0.517927 -116.141059 88.938960 -104.347447 4.835402 -3.631198 -4.719460 0.223398 -4.245082 -3.742856 -7.400888 -4.298554 0.740405 9.596032 -8.777983 -6.569582 -4.463211 -0.353517 0.307645 0.000000 0.000000 0.000000 -7.353823 1.642750 1.543996 -63.263739 -17.043801 17.204165 -3.024974 -34.107745 -0.011582 4.942389 0.937511 0.036236 -0.106193 0.138247 0.000000 0.000000 0.000000 0.000000 0.000000 0.000000 0.000000 19.598989 -8.623014 0.931071 65.070364 -8.111991 -14.827191 4.309279 9.151294 0.008312 -0.952843 4.032236 -0.037930 0.120454 -0.029945 -0.000000 0.000000 0.000000 0.000000 0.000000 0.000000 0.000000 
1.644017 16.921990 -0.493122 -110.104933 88.667817 -98.280031 5.152762 -3.575454 -4.784957 0.291992 -4.223461 -3.764343 -7.380691 -4.281013 0.736849 9.564531 -8.561414 -6.536866 -4.471575 -0.354797 0.317158 0.000000 0.000000 0.000000 -7.336743 1.789168 1.530006 -63.968364 -16.271004 16.980218 -3.023488 -32.877873 -0.011301 4.953764 1.050351 0.041570 -0.101728 0.131680 0.000000 0.000000 0.000000 0.000000 0.000000 0.000000 0.000000 19.551957 -8.386602 0.908347 65.257765 -7.562830 -14.576547 4.303033 9.096784 0.008263 -1.008372 4.032823 -0.039824 0.120124 -0.030461 -0.000000 0.000000 0.000000 0.000000 0.000000 0.000000 0.000000 
1.802970 16.951682 -0.466314 -105.683157 88.420118 -93.830067 5.413361 -3.523076 -4.825695 0.346422 -4.198938 -3.780158 -7.365210 -4.260195 0.731971 9.552928 -8.335075 -6.501326 -4.480256 -0.356074 0.327147 0.000000 0.000000 0.000000 -7.264622 1.921194 1.523329 -64.644995 -15.489552 16.725895 -3.020161 -31.667571 -0.010993 4.932379 1.196149 0.047906 -0.097224 0.125271 0.000000 0.000000 0.000000 0.000000 0.000000 0.000000 0.000000 19.525878 -8.137082 0.889481 65.482835 -6.946626 -14.256075 4.291191 9.066127 0.008172 -1.056057 4.019958 -0.041418 0.119535 -0.031030 -0.000000 0.000000 0.000000 0.000000 0.000000 0.000000 0.000000 
1.957788 16.980894 -0.438208 -102.529356 88.186315 -90.651991 5.633770 -3.475767 -4.844176 0.390151 -4.174461 -3.791512 -7.354568 -4.239054 0.724446 9.554862 -8.094597 -6.461744 -4.489517 -0.357371 0.338010 0.000000 0.000000 0.000000 -7.160558 2.038287 1.526165 -65.276788 -14.706343 16.468963 -3.016364 -30.498021 -0.010653 4.869791 1.375904 0.055345 -0.092826 0.119117 0.000000 0.000000 0.000000 0.000000 0.000000 0.000000 0.000000 19.514360 -7.869925 0.874549 65.742992 -6.277859 -13.896175 4.275184 9.066641 0.008051 -1.082627 3.996875 -0.042011 0.118659 -0.031712 -0.000000 0.000000 0.000000 0.000000 0.000000 0.000000 0.000000 
2.108696 17.009357 -0.409103 -100.539315 87.971274 -88.642435 5.814169 -3.435105 -4.842656 0.423255 -4.151562 -3.798979 -7.349032 -4.219099 0.713968 9.568405 -7.843952 -6.418737 -4.499913 -0.358725 0.349617 0.000000 0.000000 0.000000 -7.038492 2.138211 1.538907 -65.851157 -13.925117 16.234763 -3.013280 -29.387817 -0.010276 4.760184 1.587253 0.063190 -0.088647 0.113257 0.000000 0.000000 0.000000 0.000000 0.000000 0.000000 0.000000 19.519062 -7.589313 0.863133 66.032335 -5.565886 -13.505032 4.255606 9.106780 0.007909 -1.079912 3.967255 -0.041603 0.117467 -0.032531 -0.000000 0.000000 0.000000 0.000000 0.000000 0.000000 0.000000 
2.255944 17.036891 -0.379140 -99.598379 87.783949 -87.689918 5.948266 -3.402064 -4.819330 0.444822 -4.130472 -3.801386 -7.347911 -4.200465 0.703360 9.594255 -7.614083 -6.379337 -4.511253 -0.360073 0.360104 0.000000 0.000000 0.000000 -6.905707 2.210949 1.558668 -66.362445 -13.142289 16.032527 -3.011081 -28.355978 -0.009850 4.600719 1.822552 0.070940 -0.084727 0.107649 0.000000 0.000000 0.000000 0.000000 0.000000 0.000000 0.000000 19.545737 -7.328052 0.855347 66.335221 -4.791665 -13.000888 4.231651 9.191822 0.007750 -1.061145 3.932000 -0.040494 0.116027 -0.033382 -0.000000 0.000000 0.000000 0.000000 0.000000 0.000000 0.000000 
2.399920 17.063344 -0.348900 -99.592257 87.617413 -87.679387 6.050117 -3.375495 -4.779221 0.457783 -4.111539 -3.800820 -7.351621 -4.183630 0.689351 9.626384 -7.383621 -6.338058 -4.524362 -0.361517 0.370940 0.000000 0.000000 0.000000 -6.781091 2.265876 1.587127 -66.801727 -12.366916 15.892843 -3.010902 -27.410780 -0.009387 4.392976 2.076952 0.077798 -0.081183 0.102345 0.000000 0.000000 0.000000 0.000000 0.000000 0.000000 0.000000 19.588109 -7.063006 0.849971 66.652466 -3.989822 -12.462551 4.205260 9.328603 0.007606 -1.007191 3.903770 -0.038285 0.114275 -0.034407 -0.000000 0.000000 0.000000 0.000000 0.000000 0.000000 0.000000 
2.540995 17.088707 -0.318633 -100.371216 87.472305 -88.460917 6.121262 -3.353677 -4.725107 0.462693 -4.093414 -3.798067 -7.359892 -4.167322 0.671084 9.662569 -7.152141 -6.294014 -4.539513 -0.363087 0.382358 0.000000 0.000000 0.000000 -6.672242 2.304294 1.623149 -67.167391 -11.599354 15.827340 -3.012837 -26.560240 -0.008898 4.142018 2.341634 0.083359 -0.078053 0.097323 0.000000 0.000000 0.000000 0.000000 0.000000 0.000000 0.000000 19.645148 -6.793100 0.846361 66.977971 -3.172262 -11.898838 4.176944 9.521343 0.007499 -0.916548 3.892122 -0.035075 0.112212 -0.035647 -0.000000 0.000000 0.000000 0.000000 0.000000 0.000000 0.000000 
2.679494 17.112979 -0.288396 -101.734325 87.350006 -89.833901 6.159524 -3.334277 -4.656987 0.459561 -4.073717 -3.792044 -7.371816 -4.149087 0.652554 9.703741 -6.945965 -6.254185 -4.556209 -0.364698 0.392458 0.000000 0.000000 0.000000 -6.581825 2.329260 1.662456 -67.462391 -10.842955 15.833949 -3.016399 -25.808395 -0.008388 3.858044 2.604108 0.086928 -0.075336 0.092496 0.000000 0.000000 0.000000 0.000000 0.000000 0.000000 0.000000 19.720960 -6.545153 0.843712 67.297002 -2.319985 -11.226376 4.145823 9.771622 0.007435 -0.809804 3.901451 -0.031363 0.109956 -0.037010 -0.000000 0.000000 0.000000 0.000000 0.000000 0.000000 0.000000 
2.815724 17.136230 -0.258329 -103.464263 87.247808 -91.578761 6.168119 -3.313977 -4.579458 0.449204 -4.049869 -3.784493 -7.387486 -4.126545 0.630701 9.747318 -6.744564 -6.212512 -4.574889 -0.366432 0.402842 0.000000 0.000000 0.000000 -6.513619 2.348326 1.705118 -67.688227 -10.098574 15.915660 -3.021446 -25.154570 -0.007879 3.554438 2.854757 0.088200 -0.073048 0.087847 0.000000 0.000000 0.000000 0.000000 0.000000 0.000000 0.000000 19.811120 -6.296445 0.841194 67.611011 -1.461678 -10.504055 4.112716 10.082284 0.007435 -0.680386 3.943139 -0.027148 0.107477 -0.038613 -0.000000 0.000000 0.000000 0.000000 0.000000 0.000000 0.000000 
2.950019 17.158572 -0.228421 -105.332342 87.164897 -93.463901 6.148041 -3.289448 -4.496521 0.432145 -4.019061 -3.776315 -7.406459 -4.097012 0.605104 9.792312 -6.542732 -6.167236 -4.595411 -0.368298 0.413971 0.000000 0.000000 0.000000 -6.466722 2.367911 1.749459 -67.850788 -9.365750 16.062915 -3.027293 -24.596304 -0.007387 3.247425 3.083633 0.087479 -0.071164 0.083327 0.000000 0.000000 0.000000 0.000000 0.000000 0.000000 0.000000 19.913191 -6.040383 0.838125 67.917463 -0.607375 -9.739283 4.077612 10.453583 0.007509 -0.534161 4.023049 -0.022433 0.104810 -0.040493 -0.000000 0.000000 0.000000 0.000000 0.000000 0.000000 0.000000 
3.082650 17.180049 -0.198598 -107.120388 87.100858 -95.267389 6.100531 -3.257713 -4.412018 0.409104 -3.978827 -3.767540 -7.427813 -4.058032 0.578663 9.838839 -6.347988 -6.121155 -4.616949 -0.370216 0.425079 0.000000 0.000000 0.000000 -6.439528 2.399994 1.792419 -67.956958 -8.651021 16.263997 -3.033263 -24.126769 -0.006930 2.954531 3.281776 0.085161 -0.069658 0.078874 0.000000 0.000000 0.000000 0.000000 0.000000 0.000000 0.000000 20.025508 -5.783733 0.833355 68.210547 0.250398 -8.899821 4.040019 10.881693 0.007653 -0.386729 4.143808 -0.017616 0.102057 -0.042624 -0.000000 0.000000 0.000000 0.000000 0.000000 0.000000 0.000000 
3.213869 17.200756 -0.168787 -108.640614 87.056758 -96.798482 6.026565 -3.216354 -4.329629 0.380570 -3.927193 -3.759072 -7.451081 -4.007750 0.550773 9.886398 -6.151252 -6.071665 -4.639159 -0.372186 0.436861 0.000000 0.000000 0.000000 -6.427828 2.451128 1.832922 -68.013894 -7.953026 16.501659 -3.038648 -23.740018 -0.006522 2.692706 3.443447 0.081742 -0.068481 0.074451 0.000000 0.000000 0.000000 0.000000 0.000000 0.000000 0.000000 20.144442 -5.516219 0.826363 68.490959 1.101238 -8.004682 3.999845 11.364844 0.007864 -0.242758 4.305383 -0.012699 0.099247 -0.045040 -0.000000 0.000000 0.000000 0.000000 0.000000 0.000000 0.000000 
3.343800 17.220746 -0.138841 -109.731726 87.034170 -97.895395 5.926692 -3.164256 -4.249377 0.347119 -3.863180 -3.749848 -7.475122 -3.945118 0.525725 9.935787 -5.965686 -6.023714 -4.660892 -0.374081 0.447948 0.000000 0.000000 0.000000 -6.427790 2.533361 1.867913 -68.029398 -7.280810 16.761166 -3.042882 -23.426363 -0.006172 2.477092 3.564800 0.078127 -0.067590 0.070009 0.000000 0.000000 0.000000 0.000000 0.000000 0.000000 0.000000 20.268836 -5.251405 0.816158 68.753461 1.965338 -7.012487 3.956465 11.890685 0.008125 -0.120617 4.506118 -0.008278 0.096513 -0.047698 -0.000000 0.000000 0.000000 0.000000 0.000000 0.000000 0.000000 
3.472736 17.240039 -0.108718 -110.283175 87.031801 -98.440439 5.805813 -3.099557 -4.181110 0.309794 -3.785959 -3.743301 -7.499773 -3.869561 0.497843 9.984482 -5.761247 -5.967255 -4.682221 -0.376004 0.461154 0.000000 0.000000 0.000000 -6.434040 2.641896 1.899080 -68.011781 -6.618287 17.017512 -3.045284 -23.182796 -0.005879 2.317486 3.645938 0.075010 -0.066892 0.065552 0.000000 0.000000 0.000000 0.000000 0.000000 0.000000 0.000000 20.389819 -4.957208 0.803148 69.007295 2.803158 -6.003592 3.910306 12.472209 0.008418 -0.008083 4.733552 -0.003856 0.093777 -0.050656 -0.000000 0.000000 0.000000 0.000000 0.000000 0.000000 0.000000 
